<?xml version="1.0" encoding="utf-8"?>
<!-- Generator: Adobe Illustrator 17.0.0, SVG Export Plug-In . SVG Version: 6.00 Build 0)  -->
<!DOCTYPE svg PUBLIC "-//W3C//DTD SVG 1.1//EN" "http://www.w3.org/Graphics/SVG/1.1/DTD/svg11.dtd">
<svg version="1.1" id="图形" xmlns="http://www.w3.org/2000/svg" xmlns:xlink="http://www.w3.org/1999/xlink" x="0px" y="0px"
	 width="1000.636px" height="1000.678px" viewBox="0 0 1000.636 1000.678" enable-background="new 0 0 1000.636 1000.678"
	 xml:space="preserve">
<g>
	<g transform="scale(0.1953125, 0.1953125)">
		<path fill="#C1C1C1" d="M1964.303,1662.543h962.967c0,0,72.743-212.773,526.236-548.691
			c-86.802-44.817-211.708,24.455-263.156-16.799c-55.096-44.209-44.82-201.552-179.198-218.352
			c-134.354-16.789-274.301,167.963-274.301,167.963s-123.091,111.996-179.111-61.539
			c-56.017-173.533-263.159-190.333-330.348-190.333c-67.177,0-233.734,50.387-263.159,264.568
			c-12.626,67.187-83.978,92.381-142.759,58.793c-58.793-33.6-138.539-58.793-260.346-46.224
			C1703.968,1228.672,2065.081,1572.984,1964.303,1662.543z M3795.086,3697.677c0,0,5.549-789.397,0-845.376
			c-19.645-403.094-825.853-940.574-825.853-940.574l-988.13,0c-355.542,201.552-797.815,646.65-845.379,948.981
			c-4.163,15.724-33.599,666.261-44.817,887.358c-11.219,221.118-156.735,428.304-156.735,428.304s363.936,260.343,1559.209,268.747
			c1195.253,8.383,1366.063-207.144,1486.447-277.134C3817.443,4173.551,3795.086,3697.677,3795.086,3697.677z M2948.288,3553.918
			c-16.197,104.118-74.103,331.754-387.714,354.445v199.429h-221.588v-197.816c-132.417-18.595-254.422-52.865-379.86-94.904
			l66.449-260.368c99.428,38.855,230.437,80.365,345.799,93.728c156.468,18.228,261.873-13.969,271.693-127.387
			c22.377-198.717-674.671-233.715-668.077-592.293c-9.479-263.417,181.526-378.17,371.926-394.025v-207.258h221.568v197.782
			c125.852,1.545,225.409,28.698,322.41,71.095l-61.395,245.347c-97.485-36.668-197.181-71.155-316.441-71.155
			c-77.254,0-239.44,0.277-245.02,106.622c0,183.346,306.826,192.833,408.684,236.097c74.245,31.571,125.909,62.393,178.778,114.08
			C2947.815,3317.487,2966.948,3433.653,2948.288,3553.918z"/>
	</g>
</g>
</svg>
